<mxfile host="Electron" modified="2024-05-28T07:38:42.524Z" agent="Mozilla/5.0 (Macintosh; Intel Mac OS X 10_15_7) AppleWebKit/537.36 (KHTML, like Gecko) draw.io/22.1.21 Chrome/120.0.6099.109 Electron/28.1.0 Safari/537.36" etag="6Mpm2zxSuomMWZEYmSdE" version="22.1.21" type="device">
  <diagram name="第 1 页" id="6oSoOTQyn0At_wfuS4cV">
    <mxGraphModel dx="1389" dy="589" grid="0" gridSize="10" guides="1" tooltips="1" connect="1" arrows="1" fold="1" page="0" pageScale="1" pageWidth="827" pageHeight="1169" math="0" shadow="0">
      <root>
        <mxCell id="0" />
        <mxCell id="1" parent="0" />
        <mxCell id="k_G8Q7W-7CVCGkAgBM4g-1" value="组件库" style="rounded=0;whiteSpace=wrap;html=1;fontStyle=1" vertex="1" parent="1">
          <mxGeometry x="-29" y="349" width="240" height="20" as="geometry" />
        </mxCell>
        <mxCell id="k_G8Q7W-7CVCGkAgBM4g-2" value="统一API接口" style="rounded=0;whiteSpace=wrap;html=1;" vertex="1" parent="1">
          <mxGeometry x="-29" y="369" width="240" height="50" as="geometry" />
        </mxCell>
        <mxCell id="k_G8Q7W-7CVCGkAgBM4g-37" style="edgeStyle=orthogonalEdgeStyle;rounded=1;orthogonalLoop=1;jettySize=auto;html=1;entryX=0.5;entryY=0;entryDx=0;entryDy=0;curved=0;" edge="1" parent="1" source="k_G8Q7W-7CVCGkAgBM4g-3" target="k_G8Q7W-7CVCGkAgBM4g-10">
          <mxGeometry relative="1" as="geometry">
            <Array as="points">
              <mxPoint x="252" y="444" />
              <mxPoint x="252" y="298" />
              <mxPoint x="502" y="298" />
            </Array>
          </mxGeometry>
        </mxCell>
        <mxCell id="k_G8Q7W-7CVCGkAgBM4g-38" style="edgeStyle=orthogonalEdgeStyle;rounded=1;orthogonalLoop=1;jettySize=auto;html=1;entryX=0.5;entryY=0;entryDx=0;entryDy=0;curved=0;" edge="1" parent="1" source="k_G8Q7W-7CVCGkAgBM4g-3" target="k_G8Q7W-7CVCGkAgBM4g-18">
          <mxGeometry relative="1" as="geometry">
            <Array as="points">
              <mxPoint x="252" y="444" />
              <mxPoint x="252" y="298" />
              <mxPoint x="670" y="298" />
            </Array>
          </mxGeometry>
        </mxCell>
        <mxCell id="k_G8Q7W-7CVCGkAgBM4g-3" value="不同交互规范" style="rounded=0;whiteSpace=wrap;html=1;" vertex="1" parent="1">
          <mxGeometry x="-29" y="419" width="240" height="50" as="geometry" />
        </mxCell>
        <mxCell id="k_G8Q7W-7CVCGkAgBM4g-36" style="edgeStyle=orthogonalEdgeStyle;rounded=1;orthogonalLoop=1;jettySize=auto;html=1;entryX=0.5;entryY=1;entryDx=0;entryDy=0;curved=0;" edge="1" parent="1" source="k_G8Q7W-7CVCGkAgBM4g-4" target="k_G8Q7W-7CVCGkAgBM4g-35">
          <mxGeometry relative="1" as="geometry">
            <Array as="points">
              <mxPoint x="-75" y="494" />
              <mxPoint x="-75" y="609" />
              <mxPoint x="502" y="609" />
            </Array>
          </mxGeometry>
        </mxCell>
        <mxCell id="k_G8Q7W-7CVCGkAgBM4g-4" value="Vue Composition API&lt;br&gt;React Hooks API&lt;br&gt;other framework" style="rounded=0;whiteSpace=wrap;html=1;" vertex="1" parent="1">
          <mxGeometry x="-29" y="469" width="240" height="50" as="geometry" />
        </mxCell>
        <mxCell id="k_G8Q7W-7CVCGkAgBM4g-39" style="edgeStyle=orthogonalEdgeStyle;rounded=1;orthogonalLoop=1;jettySize=auto;html=1;entryX=0.5;entryY=1;entryDx=0;entryDy=0;curved=0;" edge="1" parent="1" source="k_G8Q7W-7CVCGkAgBM4g-5" target="k_G8Q7W-7CVCGkAgBM4g-9">
          <mxGeometry relative="1" as="geometry" />
        </mxCell>
        <mxCell id="k_G8Q7W-7CVCGkAgBM4g-5" value="无渲染组件逻辑层" style="rounded=0;whiteSpace=wrap;html=1;" vertex="1" parent="1">
          <mxGeometry x="-29" y="519" width="240" height="50" as="geometry" />
        </mxCell>
        <mxCell id="k_G8Q7W-7CVCGkAgBM4g-6" value="组件结构" style="rounded=0;whiteSpace=wrap;html=1;fontStyle=1" vertex="1" parent="1">
          <mxGeometry x="289" y="394" width="100" height="20" as="geometry" />
        </mxCell>
        <mxCell id="k_G8Q7W-7CVCGkAgBM4g-7" value="组件模板" style="rounded=0;whiteSpace=wrap;html=1;" vertex="1" parent="1">
          <mxGeometry x="289" y="414" width="100" height="30" as="geometry" />
        </mxCell>
        <mxCell id="k_G8Q7W-7CVCGkAgBM4g-42" style="edgeStyle=orthogonalEdgeStyle;rounded=1;orthogonalLoop=1;jettySize=auto;html=1;curved=0;" edge="1" parent="1" source="k_G8Q7W-7CVCGkAgBM4g-8" target="k_G8Q7W-7CVCGkAgBM4g-20">
          <mxGeometry relative="1" as="geometry" />
        </mxCell>
        <mxCell id="k_G8Q7W-7CVCGkAgBM4g-8" value="组件样式" style="rounded=0;whiteSpace=wrap;html=1;" vertex="1" parent="1">
          <mxGeometry x="289" y="444" width="100" height="30" as="geometry" />
        </mxCell>
        <mxCell id="k_G8Q7W-7CVCGkAgBM4g-40" style="edgeStyle=orthogonalEdgeStyle;rounded=1;orthogonalLoop=1;jettySize=auto;html=1;curved=0;" edge="1" parent="1" source="k_G8Q7W-7CVCGkAgBM4g-9" target="k_G8Q7W-7CVCGkAgBM4g-14">
          <mxGeometry relative="1" as="geometry" />
        </mxCell>
        <mxCell id="k_G8Q7W-7CVCGkAgBM4g-9" value="组件逻辑" style="rounded=0;whiteSpace=wrap;html=1;" vertex="1" parent="1">
          <mxGeometry x="289" y="474" width="100" height="30" as="geometry" />
        </mxCell>
        <mxCell id="k_G8Q7W-7CVCGkAgBM4g-10" value="跨端" style="rounded=0;whiteSpace=wrap;html=1;fontStyle=1" vertex="1" parent="1">
          <mxGeometry x="452" y="318" width="100" height="20" as="geometry" />
        </mxCell>
        <mxCell id="k_G8Q7W-7CVCGkAgBM4g-11" value="PC template" style="rounded=0;whiteSpace=wrap;html=1;" vertex="1" parent="1">
          <mxGeometry x="452" y="338" width="100" height="30" as="geometry" />
        </mxCell>
        <mxCell id="k_G8Q7W-7CVCGkAgBM4g-12" value="Mobile template" style="rounded=0;whiteSpace=wrap;html=1;" vertex="1" parent="1">
          <mxGeometry x="452" y="368" width="100" height="30" as="geometry" />
        </mxCell>
        <mxCell id="k_G8Q7W-7CVCGkAgBM4g-14" value="跨技术栈" style="rounded=0;whiteSpace=wrap;html=1;fontStyle=1" vertex="1" parent="1">
          <mxGeometry x="452" y="479" width="100" height="20" as="geometry" />
        </mxCell>
        <mxCell id="k_G8Q7W-7CVCGkAgBM4g-41" style="edgeStyle=orthogonalEdgeStyle;rounded=1;orthogonalLoop=1;jettySize=auto;html=1;curved=0;" edge="1" parent="1" source="k_G8Q7W-7CVCGkAgBM4g-15" target="k_G8Q7W-7CVCGkAgBM4g-24">
          <mxGeometry relative="1" as="geometry" />
        </mxCell>
        <mxCell id="k_G8Q7W-7CVCGkAgBM4g-15" value="Vue Composition API" style="rounded=0;whiteSpace=wrap;html=1;" vertex="1" parent="1">
          <mxGeometry x="452" y="499" width="100" height="30" as="geometry" />
        </mxCell>
        <mxCell id="k_G8Q7W-7CVCGkAgBM4g-16" value="React Hooks API" style="rounded=0;whiteSpace=wrap;html=1;" vertex="1" parent="1">
          <mxGeometry x="452" y="529" width="100" height="30" as="geometry" />
        </mxCell>
        <mxCell id="k_G8Q7W-7CVCGkAgBM4g-18" value="跨UX规范" style="rounded=0;whiteSpace=wrap;html=1;fontStyle=1" vertex="1" parent="1">
          <mxGeometry x="620" y="318" width="100" height="20" as="geometry" />
        </mxCell>
        <mxCell id="k_G8Q7W-7CVCGkAgBM4g-19" value="标准规范" style="rounded=0;whiteSpace=wrap;html=1;" vertex="1" parent="1">
          <mxGeometry x="620" y="338" width="100" height="30" as="geometry" />
        </mxCell>
        <mxCell id="k_G8Q7W-7CVCGkAgBM4g-20" value="定制规范" style="rounded=0;whiteSpace=wrap;html=1;" vertex="1" parent="1">
          <mxGeometry x="620" y="368" width="100" height="30" as="geometry" />
        </mxCell>
        <mxCell id="k_G8Q7W-7CVCGkAgBM4g-24" value="跨技术栈版本" style="rounded=0;whiteSpace=wrap;html=1;fontStyle=1" vertex="1" parent="1">
          <mxGeometry x="620" y="479" width="100" height="20" as="geometry" />
        </mxCell>
        <mxCell id="k_G8Q7W-7CVCGkAgBM4g-25" value="Vue2.0适配" style="rounded=0;whiteSpace=wrap;html=1;" vertex="1" parent="1">
          <mxGeometry x="620" y="499" width="100" height="30" as="geometry" />
        </mxCell>
        <mxCell id="k_G8Q7W-7CVCGkAgBM4g-26" value="Vue3.0 适配" style="rounded=0;whiteSpace=wrap;html=1;" vertex="1" parent="1">
          <mxGeometry x="620" y="529" width="100" height="30" as="geometry" />
        </mxCell>
        <mxCell id="k_G8Q7W-7CVCGkAgBM4g-35" value="other framework" style="rounded=0;whiteSpace=wrap;html=1;" vertex="1" parent="1">
          <mxGeometry x="452" y="559" width="100" height="30" as="geometry" />
        </mxCell>
      </root>
    </mxGraphModel>
  </diagram>
</mxfile>
